<svg width="400" height="360" viewBox="0 0 400 360" fill="none" xmlns="http://www.w3.org/2000/svg">
<path d="M58.5552 328.893C136.624 369.715 263.207 369.715 341.276 328.893C419.345 288.071 419.345 221.977 341.276 181.191C263.207 140.406 136.624 140.37 58.5552 181.191C-19.5138 222.013 -19.5229 288.117 58.5552 328.893Z" fill="#F5F5F5"/>
<path d="M292.055 291.873C312.541 291.873 329.148 282.283 329.148 270.455C329.148 258.626 312.541 249.037 292.055 249.037C271.569 249.037 254.961 258.626 254.961 270.455C254.961 282.283 271.569 291.873 292.055 291.873Z" fill="#E0E0E0"/>
<path d="M66.1207 259.269C65.5673 252.974 59.8795 240.337 52.6314 232.735C45.3833 225.133 34.5973 220.035 27.5216 223.183C20.9266 226.104 22.4416 234.976 31.2046 240.138C39.9676 245.299 52.9761 251.658 57.5119 261.555L66.2114 273.421L66.1207 259.269Z" fill="#A50A10"/>
<path opacity="0.1" d="M66.1207 259.269C65.5673 252.974 59.8795 240.337 52.6314 232.735C45.3833 225.133 34.5973 220.035 27.5216 223.183C20.9266 226.104 22.4416 234.976 31.2046 240.138C39.9676 245.299 52.9761 251.658 57.5119 261.555L66.2114 273.421L66.1207 259.269Z" fill="black"/>
<path d="M67.3361 267.842C67.2349 267.845 67.1356 267.813 67.0548 267.752C66.974 267.691 66.9164 267.604 66.8916 267.506C60.7956 246.388 41.8907 230.449 31.1501 227.492C31.0905 227.476 31.0347 227.448 30.9858 227.41C30.937 227.373 30.896 227.326 30.8652 227.272C30.8345 227.219 30.8146 227.16 30.8066 227.099C30.7987 227.037 30.8029 226.975 30.819 226.916C30.8351 226.856 30.8627 226.8 30.9004 226.751C30.938 226.703 30.9849 226.662 31.0384 226.631C31.0919 226.6 31.1509 226.58 31.2121 226.572C31.2733 226.564 31.3355 226.569 31.395 226.585C42.3352 229.596 61.5939 245.798 67.7716 267.234C67.7896 267.292 67.796 267.352 67.7902 267.413C67.7844 267.473 67.7666 267.531 67.7378 267.585C67.7091 267.638 67.67 267.685 67.6228 267.723C67.5756 267.761 67.5213 267.789 67.4632 267.805L67.3361 267.842Z" fill="white"/>
<path d="M65.3313 281.875C64.0069 278.428 59.1809 272.967 51.7241 268.749C43.5598 264.095 33.5268 262.499 30.8598 258.534C27.712 253.79 31.5129 248.71 39.5411 249C47.5694 249.29 62.4738 258.906 66.1387 275.026L65.3313 281.875Z" fill="#A50A10"/>
<path d="M66.5469 278.029C66.4571 278.03 66.369 278.004 66.2932 277.956C66.2175 277.908 66.1575 277.838 66.1205 277.757C57.9562 259.931 43.3149 254.697 36.7381 254.416C36.6773 254.413 36.6176 254.399 36.5624 254.374C36.5071 254.348 36.4574 254.312 36.4162 254.268C36.3749 254.223 36.3428 254.171 36.3218 254.113C36.3007 254.056 36.2912 253.996 36.2936 253.935C36.2946 253.874 36.3081 253.814 36.3332 253.759C36.3584 253.704 36.3946 253.654 36.4396 253.613C36.4847 253.572 36.5377 253.541 36.5952 253.522C36.6528 253.502 36.7138 253.495 36.7744 253.5C44.0315 253.799 58.5459 259.169 66.9642 277.376C67.0113 277.487 67.014 277.612 66.9719 277.725C66.9297 277.838 66.8458 277.93 66.7374 277.983C66.6776 278.011 66.6128 278.027 66.5469 278.029Z" fill="white"/>
<path d="M312.474 251.113C312.338 246.042 313.744 237.551 318.734 229.07C324.077 219.998 331.125 213.92 337.049 215.771C342.564 217.494 341.349 224.978 333.058 233.134C327.234 238.858 321.392 246.115 318.67 254.415L314.007 265.101L312.474 251.113Z" fill="#A50A10"/>
<path d="M312.474 251.113C312.338 246.042 313.744 237.551 318.734 229.07C324.077 219.998 331.125 213.92 337.049 215.771C342.564 217.494 341.349 224.978 333.058 233.134C327.234 238.858 321.392 246.115 318.67 254.415L314.007 265.101L312.474 251.113Z" fill="#A50A10"/>
<g opacity="0.1">
<path d="M312.474 251.113C312.338 246.042 313.744 237.551 318.734 229.07C324.077 219.998 331.125 213.92 337.049 215.771C342.564 217.494 341.349 224.978 333.058 233.134C327.234 238.858 321.392 246.115 318.67 254.415L314.007 265.101L312.474 251.113Z" fill="black"/>
</g>
<path d="M313.4 254.879C313.474 254.873 313.543 254.843 313.599 254.794C313.654 254.745 313.693 254.679 313.708 254.607C317.264 240.147 326.263 224.925 334.654 219.228C334.72 219.17 334.763 219.09 334.775 219.003C334.787 218.915 334.766 218.827 334.717 218.753C334.668 218.68 334.595 218.627 334.51 218.604C334.424 218.581 334.334 218.59 334.255 218.629C325.737 224.444 316.602 239.838 313.01 254.461C312.999 254.507 312.997 254.554 313.004 254.6C313.012 254.646 313.028 254.69 313.053 254.729C313.077 254.769 313.109 254.803 313.147 254.83C313.185 254.858 313.227 254.877 313.273 254.888C313.315 254.894 313.359 254.891 313.4 254.879Z" fill="white"/>
<path d="M312.429 267.507C315.228 269.99 318.632 271.693 322.299 272.442C328.649 273.829 331.606 270.954 331.606 270.954C331.606 270.954 329.447 264.831 325.936 262.935C329.8 264.045 333.447 265.802 336.722 268.133C336.722 268.133 340.605 268.423 342.51 262.581C342.51 262.581 340.414 258.862 332.794 256.476C336.653 256.016 340.566 256.445 344.234 257.728C344.732 257.963 347.354 250.416 348.225 246.914C349.096 243.413 347.663 243.358 344.95 242.46C342.238 241.562 332.849 240.537 331.035 241.952C329.22 243.367 328.023 248.502 328.023 248.502C328.023 248.502 326.544 245.472 327.116 242.869C325.223 242.203 323.172 242.13 321.237 242.66C318.071 243.567 318.18 245.082 318.044 247.341C317.897 249.613 318.075 251.895 318.57 254.117C318.57 254.117 316.538 252.131 316.874 245.291C316.874 245.291 312.465 248.629 310.597 251.641C308.728 254.652 308.692 262.662 312.429 267.507Z" fill="#A50A10"/>
<path d="M312.402 267.869C312.469 267.873 312.536 267.858 312.595 267.826C312.655 267.794 312.704 267.746 312.737 267.687C318.516 257.31 338.373 246.034 345.304 245.109C345.35 245.102 345.395 245.086 345.436 245.063C345.476 245.039 345.511 245.007 345.54 244.97C345.568 244.932 345.588 244.889 345.6 244.844C345.612 244.799 345.614 244.751 345.608 244.705C345.601 244.658 345.586 244.614 345.562 244.573C345.538 244.533 345.506 244.498 345.469 244.469C345.431 244.441 345.389 244.421 345.343 244.409C345.298 244.397 345.251 244.394 345.204 244.401C338.165 245.308 317.99 256.793 312.111 267.334C312.065 267.417 312.054 267.515 312.079 267.606C312.105 267.698 312.165 267.776 312.248 267.823C312.295 267.851 312.347 267.866 312.402 267.869Z" fill="white"/>
<path d="M71.0194 288.824L68.5519 287.4C67.4954 286.711 66.6161 285.783 65.9856 284.691C65.3552 283.599 64.9912 282.373 64.9233 281.114V64.7684C64.9905 63.5076 65.3541 62.2804 65.9846 61.1866C66.6151 60.0927 67.4947 59.1629 68.5519 58.4728L168.338 0.869012C169.462 0.297745 170.706 0 171.967 0C173.228 0 174.471 0.297745 175.595 0.869012L178.063 2.29323C179.119 2.98247 179.998 3.91079 180.628 5.00299C181.258 6.09519 181.623 7.32054 181.691 8.57975V224.934C181.623 226.193 181.258 227.419 180.628 228.511C179.998 229.603 179.119 230.531 178.063 231.221L78.2765 288.824C77.1523 289.396 75.909 289.693 74.6479 289.693C73.3869 289.693 72.1436 289.396 71.0194 288.824Z" fill="#171C25"/>
<path d="M79.5193 69.041L65.9847 61.2305C65.3336 62.3159 64.9684 63.5487 64.9233 64.8137V281.114C64.9912 282.373 65.3552 283.599 65.9856 284.691C66.6161 285.783 67.4954 286.711 68.5519 287.4L71.0194 288.824C72.1436 289.396 73.3869 289.693 74.6479 289.693C75.909 289.693 77.1523 289.396 78.2765 288.824L79.5103 288.117L79.5193 69.041Z" fill="#263238"/>
<path d="M74.6479 70.3837V286.756C74.6479 289.078 76.2717 290.013 78.2765 288.852L178.063 231.248C179.119 230.559 179.998 229.63 180.628 228.538C181.258 227.446 181.623 226.221 181.691 224.961V8.57987C181.691 6.26665 180.067 5.33229 178.063 6.48437L78.2765 64.0972C77.219 64.7848 76.3389 65.7128 75.7083 66.8053C75.0777 67.8979 74.7144 69.124 74.6479 70.3837Z" fill="#171C25"/>
<path d="M82.6308 84.0635L173.345 31.6758C175.06 30.687 176.457 31.4944 176.457 33.4901V206.075C176.398 207.154 176.086 208.205 175.546 209.141C175.005 210.077 174.251 210.873 173.345 211.463L82.6308 263.842C80.9072 264.84 79.5193 264.032 79.5193 262.027V89.452C79.5756 88.3719 79.887 87.3206 80.4278 86.384C80.9686 85.4474 81.7236 84.6522 82.6308 84.0635Z" fill="#FAFAFA"/>
<g opacity="0.4">
<path d="M128.496 97.6605C138.665 91.7912 146.911 96.5538 146.911 108.292C146.911 120.031 138.665 134.327 128.496 140.197C118.327 146.066 110.081 141.312 110.081 129.565C110.081 117.817 118.327 103.512 128.496 97.6605Z" fill="#A50A10"/>
<path d="M164.791 160.481C164.791 141.186 151.247 132.613 134.538 142.265L124.087 148.298C107.378 157.941 93.834 181.409 93.834 200.704V205.902L164.791 164.953V160.481Z" fill="#A50A10"/>
</g>
<path d="M128.17 40.9198C129.512 40.1396 130.601 40.7747 130.601 42.3259C130.556 43.1694 130.312 43.9903 129.89 44.7218C129.467 45.4533 128.878 46.0746 128.17 46.535C126.827 47.3152 125.739 46.6802 125.739 45.1289C125.784 44.2854 126.027 43.4645 126.45 42.733C126.872 42.0015 127.461 41.3803 128.17 40.9198Z" fill="#263238"/>
<path d="M121.148 53.0561C126.092 50.3346 134.91 45.0822 139.781 42.2157C140.607 41.7258 141.278 42.0614 141.278 42.9595C141.242 43.466 141.087 43.9569 140.825 44.392C140.564 44.8271 140.203 45.1942 139.772 45.4632L121.112 56.2401C120.277 56.7209 119.606 56.3853 119.606 55.4781C119.648 54.9798 119.811 54.4992 120.079 54.0773C120.348 53.6555 120.715 53.305 121.148 53.0561Z" fill="#263238"/>
<path d="M116.431 55.7889C117.184 55.3535 117.801 55.7072 117.801 56.5781C117.774 57.0525 117.636 57.514 117.398 57.9253C117.16 58.3366 116.829 58.6862 116.431 58.9457C115.678 59.3812 115.061 59.0274 115.061 58.1565C115.088 57.6821 115.226 57.2206 115.464 56.8093C115.702 56.398 116.033 56.0485 116.431 55.7889Z" fill="#263238"/>
<path d="M128.17 243.213C130.891 241.661 133.041 242.922 133.041 246.025C132.95 247.714 132.461 249.357 131.615 250.822C130.768 252.286 129.588 253.53 128.17 254.452C125.448 256.003 123.307 254.742 123.307 251.64C123.399 249.952 123.887 248.309 124.731 246.845C125.576 245.381 126.754 244.137 128.17 243.213Z" fill="#263238"/>
<path d="M210.91 182.559L199.97 176.209L199.852 176.146C194.409 173.08 186.952 173.524 178.688 178.305C170.96 182.759 163.902 190.188 158.586 198.797C152.445 208.703 148.607 220.179 148.607 230.457C148.607 240.045 151.964 246.785 157.389 249.933L168.501 256.283C173.989 259.785 181.727 259.467 190.327 254.514C206.937 245.025 220.426 221.63 220.426 202.389C220.426 192.411 216.761 185.526 210.91 182.559Z" fill="#A50A10"/>
<path opacity="0.1" d="M168.265 256.228L157.38 250.005C151.937 246.857 148.598 240.117 148.598 230.529C148.598 220.241 152.463 208.757 158.577 198.869L170.207 205.573C164.056 215.488 160.228 226.936 160.228 237.205C160.183 246.358 163.258 252.917 168.265 256.228Z" fill="black"/>
<path opacity="0.4" d="M210.72 182.433C205.349 179.829 198.192 180.491 190.336 185.018C182.48 189.545 175.513 196.947 170.188 205.556L158.559 198.852C163.875 190.243 170.932 182.814 178.661 178.36C186.916 173.588 194.382 173.134 199.825 176.201L199.943 176.264L210.72 182.433Z" fill="white"/>
<path d="M205.993 194.678L201.821 192.265L185.483 230.773L188.268 232.379L205.993 194.678Z" fill="white"/>
<path d="M182.281 222.173L178.108 219.77L173.626 229.249L177.799 231.653L182.281 222.173Z" fill="white"/>
<path d="M189.338 243.673L177.799 231.653L182.281 222.173L188.268 232.379L205.993 194.678L212.561 201.082L189.338 243.673Z" fill="#F5F5F5"/>
<path d="M173.626 229.251L177.799 231.655L189.338 243.675L185.174 241.289L173.626 229.251Z" fill="#E0E0E0"/>
<path d="M295.991 88.0205C300.717 88.0205 305.248 86.1434 308.589 82.8022C311.931 79.461 313.808 74.9293 313.808 70.2041V69.1518C313.809 67.1688 313.419 65.2049 312.661 63.3725C311.903 61.54 310.792 59.8749 309.39 58.4723C307.988 57.0696 306.324 55.9569 304.492 55.1978C302.66 54.4386 300.696 54.0479 298.713 54.0479H293.27C289.264 54.0479 285.422 55.6392 282.59 58.4717C279.757 61.3043 278.166 65.146 278.166 69.1518V70.2041C278.166 72.5446 278.627 74.8621 279.523 77.0242C280.419 79.1864 281.732 81.1509 283.388 82.8054C285.043 84.4599 287.008 85.7721 289.171 86.6669C291.333 87.5617 293.651 88.0217 295.991 88.0205Z" fill="#263238"/>
<path d="M277.613 264.251C275.535 266.432 273.257 268.412 270.809 270.166C270.436 270.416 270.126 270.748 269.902 271.137C269.585 271.808 269.086 273.459 272.125 274.52C273.661 275.053 275.295 275.247 276.914 275.091C278.532 274.934 280.098 274.43 281.504 273.613C284.008 272.053 284.117 268.805 286.476 266.946C288.217 265.576 290.394 265.222 291.81 263.426C292.789 262.174 292.535 260.514 292.018 258.455C291.465 256.205 291.202 254.509 290.458 254.681L290.585 255.715C289.678 257.194 284.843 257.629 282.702 256.622C282.666 256.604 278.964 262.773 277.613 264.251Z" fill="#263238"/>
<path d="M275.499 266.348C276.225 265.686 276.932 264.996 277.613 264.252C279.037 262.404 280.349 260.471 281.541 258.465C282.362 257.249 282.749 255.791 282.638 254.328C282.466 252.768 282.04 248.786 282.04 248.786L289.66 248.241L290.567 255.716C290.748 257.412 289.351 258.918 286.866 261.059C284.38 263.2 281.241 268.18 278.992 269.432C276.742 270.684 275.145 270.639 274.184 269.995C273.222 269.35 273.086 268.824 275.499 266.348Z" fill="#B16668"/>
<path d="M306.596 264.932V263.78C306.151 265.132 304.056 270.91 300.872 273.813C298.35 276.117 294.903 278.775 294.023 281.352C293.143 283.928 298.822 284.917 301.18 284.5C303.902 284.019 307.476 282.458 309.408 280.091C310.76 278.422 311.631 276.462 312.601 275.129C313.572 273.795 315.804 272.353 316.33 270.829C316.62 269.994 316.275 268.171 315.867 266.629C315.459 265.087 315.096 263.653 314.615 263.78V264.687C313.472 265.583 312.057 266.06 310.606 266.039C309.435 266.057 306.587 265.821 306.596 264.932Z" fill="#263238"/>
<path d="M298.586 275.873C299.366 275.174 300.155 274.494 300.872 273.841C303.094 271.818 304.791 268.398 305.761 266.039C306.317 264.702 306.603 263.269 306.605 261.821V257.285H314.615V264.724V264.923C314.234 266.592 310.551 271.019 308.465 273.904C307.068 275.836 304.41 278.304 301.208 278.73C298.169 279.075 296.627 278.122 298.586 275.873Z" fill="#B16668"/>
<path d="M313.019 140.416C319.233 153.978 312.792 201.767 312.792 201.767C312.982 203.971 315.513 208.307 316.42 217.995C317.527 229.444 314.679 258.182 314.679 258.182C313.458 258.893 312.081 259.295 310.669 259.351C309.257 259.408 307.852 259.119 306.578 258.509C306.578 258.509 298.949 215.211 297.506 203.835C296.255 193.902 293.878 170.552 293.878 170.552L287.637 204.044C288.792 207.177 289.61 210.425 290.077 213.732C290.721 220.436 290.24 251.397 290.24 251.397C290.24 251.397 287.519 253.483 282.248 252.712C282.248 252.712 273.177 210.312 272.46 202.256C272.043 197.449 277.522 138.43 277.522 138.43L313.019 140.416Z" fill="#A50A10"/>
<path opacity="0.6" d="M313.019 140.416C319.233 153.978 312.792 201.767 312.792 201.767C312.982 203.971 315.513 208.307 316.42 217.995C317.527 229.444 314.679 258.182 314.679 258.182C313.458 258.893 312.081 259.295 310.669 259.351C309.257 259.408 307.852 259.119 306.578 258.509C306.578 258.509 298.949 215.211 297.506 203.835C296.255 193.902 293.878 170.552 293.878 170.552L287.637 204.044C288.792 207.177 289.61 210.425 290.077 213.732C290.721 220.436 290.24 251.397 290.24 251.397C290.24 251.397 287.519 253.483 282.248 252.712C282.248 252.712 273.177 210.312 272.46 202.256C272.043 197.449 277.522 138.43 277.522 138.43L313.019 140.416Z" fill="black"/>
<path opacity="0.3" d="M293.869 170.553L291.855 159.459C291.855 159.459 283.319 157.69 279.454 154.016C279.454 154.016 283.509 159.068 289.542 160.719L291.81 170.417L288.245 200.715L293.869 170.553Z" fill="black"/>
<path d="M323.142 134.521C323.079 133.614 321.41 124.134 320.267 118.818L309.1 122.238L311.087 132.017L320.485 139.565C323.442 138.984 323.206 135.41 323.142 134.521Z" fill="#B16668"/>
<path d="M269.131 114.491L263.851 124.17L272.07 131.21L279.59 119.281L269.131 114.491Z" fill="#B16668"/>
<path d="M288.943 92.9287C283.709 92.9831 277.939 94.8791 275.953 98.9884C273.966 103.098 268.478 114.41 268.478 114.41C268.478 114.41 273.367 121.05 280.706 120.569L288.943 92.9287Z" fill="#A50A10"/>
<path opacity="0.6" d="M288.943 92.9287C283.709 92.9831 277.939 94.8791 275.953 98.9884C273.966 103.098 268.478 114.41 268.478 114.41C268.478 114.41 273.367 121.05 280.706 120.569L288.943 92.9287Z" fill="black"/>
<path d="M299.774 93.1101L304.138 93.2916C308.873 94.4255 310.588 97.6822 312.574 101.882C314.031 105.126 314.168 108.809 312.955 112.151L307.403 128.208C307.403 128.208 309.998 134.485 313.019 140.418C299.094 148.192 281.704 144.101 277.513 138.431C277.341 137.225 277.576 131.809 277.241 125.64C276.887 119.055 275.98 111.625 277.014 107.561C278.937 100.014 282.53 92.9287 289.714 92.9287L299.774 93.1101Z" fill="#F5F5F5"/>
<path d="M304.156 93.29C308.9 93.9613 315.885 94.9138 318.289 106.208C320.729 117.656 321.192 120.386 321.192 120.386C321.192 120.386 317.037 124.532 309.154 124.496C309.136 124.496 302.187 102.017 304.156 93.29Z" fill="#A50A10"/>
<path opacity="0.6" d="M304.156 93.29C308.9 93.9613 315.885 94.9138 318.289 106.208C320.729 117.656 321.192 120.386 321.192 120.386C321.192 120.386 317.037 124.532 309.154 124.496C309.136 124.496 302.187 102.017 304.156 93.29Z" fill="black"/>
<path d="M308.928 123.797C308.02 120.795 307.113 117.366 306.251 113.683C306.289 118.313 306.759 122.929 307.658 127.471L308.928 123.797Z" fill="#EBEBEB"/>
<path d="M283.981 61.25C282.103 62.3658 279.781 67.1011 280.008 77.0253C280.198 85.4345 282.929 87.5119 284.298 88.1106C285.668 88.7093 288.308 88.3464 290.875 87.9201V92.9729C290.875 92.9729 287.328 97.0913 287.546 99.4046C287.764 101.718 292.671 102.271 295.992 100.003C298.141 98.4555 299.986 96.5242 301.434 94.3064V82.0962C301.434 82.0962 303.167 84.4094 305.97 82.5316C308.773 80.6538 308.909 75.9911 307.267 74.3129C305.625 72.6347 302.06 73.1699 301.407 75.4831C301.407 75.4831 297.307 75.6373 291.855 72.6438C289.741 71.4951 287.927 69.8654 286.559 67.8861C285.191 65.9068 284.308 63.6336 283.981 61.25Z" fill="#B16668"/>
<path d="M289.397 74.912C289.393 75.1203 289.451 75.3249 289.564 75.5004C289.676 75.6759 289.837 75.8146 290.028 75.899C290.218 75.9834 290.429 76.01 290.634 75.9753C290.84 75.9406 291.031 75.8463 291.183 75.704C291.335 75.5618 291.442 75.3779 291.49 75.1753C291.539 74.9727 291.526 74.7603 291.455 74.5646C291.383 74.369 291.256 74.1986 291.088 74.0749C290.921 73.9512 290.72 73.8795 290.512 73.8688C290.371 73.8639 290.229 73.8871 290.096 73.9369C289.964 73.9867 289.842 74.0622 289.738 74.1591C289.635 74.256 289.551 74.3724 289.493 74.5016C289.434 74.6308 289.401 74.7702 289.397 74.912Z" fill="#263238"/>
<path d="M289.115 82.042L286.657 82.8312C286.699 82.9977 286.774 83.1539 286.878 83.2905C286.982 83.4272 287.112 83.5413 287.261 83.6261C287.411 83.7109 287.575 83.7645 287.746 83.7838C287.916 83.8031 288.089 83.7877 288.254 83.7384C288.59 83.6243 288.869 83.3829 289.03 83.0658C289.191 82.7488 289.222 82.3813 289.115 82.042Z" fill="#9A4A4D"/>
<path d="M280.724 71.6635L282.865 70.1848C282.776 70.0349 282.657 69.9053 282.515 69.8042C282.373 69.7031 282.211 69.6328 282.04 69.5978C281.869 69.5628 281.693 69.5638 281.523 69.6009C281.352 69.6379 281.192 69.7101 281.051 69.8129C280.771 70.0216 280.581 70.3294 280.52 70.6734C280.459 71.0174 280.532 71.3715 280.724 71.6635Z" fill="#263238"/>
<path d="M281.214 74.1501C281.213 74.358 281.272 74.5618 281.386 74.7362C281.499 74.9105 281.661 75.0477 281.851 75.1308C282.042 75.2138 282.253 75.2391 282.458 75.2034C282.663 75.1677 282.852 75.0726 283.004 74.9299C283.155 74.7873 283.261 74.6033 283.309 74.4009C283.356 74.1985 283.343 73.9866 283.272 73.7915C283.2 73.5963 283.072 73.4265 282.905 73.3032C282.738 73.1799 282.538 73.1085 282.33 73.0978C282.043 73.0928 281.766 73.2001 281.558 73.3968C281.349 73.5934 281.226 73.8638 281.214 74.1501Z" fill="#263238"/>
<path d="M286.204 73.542L286.04 79.9101L282.693 78.876L286.204 73.542Z" fill="#9A4A4D"/>
<path d="M290.875 87.9223C293.597 87.5685 299.139 85.9719 300.01 83.7676C299.663 84.8824 298.982 85.864 298.06 86.5797C296.4 88.004 290.875 89.6096 290.875 89.6096V87.9223Z" fill="#9A4A4D"/>
<path d="M246.597 113.901L277.304 121.984L286.376 160.102L257.175 151.621L246.597 113.901Z" fill="#A50A10"/>
<path opacity="0.15" d="M259.987 139.12C259.706 139.9 258.018 142.059 254.444 141.887L254.009 140.308L259.987 139.12Z" fill="black"/>
<path opacity="0.15" d="M266.854 140.309C266.99 141.325 269.077 143.211 272.605 144.382C276.624 145.724 282.783 145.017 282.783 145.017L282.23 143.121L266.854 140.309Z" fill="black"/>
<path opacity="0.15" d="M255.587 119.418C255.587 119.418 255.478 118.892 255.333 118.248C255.188 117.603 257.002 117.567 259.361 118.184L263.897 119.354C266.255 119.971 268.287 120.996 268.433 121.64L268.687 122.81L255.587 119.418Z" fill="black"/>
<path d="M253.464 114.998C253.374 114.59 254.099 114.49 255.088 114.762L256.903 115.252C256.903 115.252 256.367 112.721 260.341 113.61C264.314 114.499 265.185 117.366 265.185 117.366L267.099 117.91C268.16 118.209 269.113 118.817 269.24 119.189L269.467 119.915L253.646 115.751C253.646 115.751 253.546 115.397 253.464 114.998Z" fill="#171C25"/>
<path d="M255.642 116.26C257.093 116.614 257.692 116.804 257.909 117.802C258.154 118.945 258.254 119.78 258.254 119.78L265.257 121.594C265.257 121.594 264.922 120.152 264.813 119.589C264.704 119.027 264.94 118.682 266.056 118.982L266.146 118.537L255.17 115.779L255.642 116.26Z" fill="#171C25"/>
<path d="M255.397 119.527C255.397 119.527 255.288 119 255.143 118.356C254.998 117.712 256.812 117.685 259.17 118.293L263.706 119.472C266.065 120.08 268.097 121.105 268.242 121.749L268.496 122.919L255.397 119.527Z" fill="#171C25"/>
<path d="M320.484 139.565L311.077 132.018C311.077 132.018 290.286 135.719 287.836 135.91C286.544 135.945 285.271 135.588 284.185 134.887C283.099 134.186 282.25 133.174 281.749 131.982C280.842 129.578 279.182 129.877 279.182 129.877C279.182 129.877 279.899 132.916 280.089 133.887C280.28 134.857 274.465 135.701 271.217 134.558C267.97 133.415 263.262 135.057 266.174 139.475C269.086 143.893 274.755 144.41 278.683 144.41C280.33 144.397 281.975 144.288 283.609 144.083C284.879 143.92 286.149 143.793 287.428 143.702C295.529 143.121 316.856 140.708 320.484 139.565Z" fill="#B16668"/>
<path d="M249.727 125.041L251.088 129.904C251.351 130.811 254.916 132.534 257.175 133.16C259.434 133.786 261.901 134.512 260.803 137.696C259.824 140.608 256.104 141.27 254.217 141.189C252.331 141.107 249.736 139.302 248.72 136.39C247.414 132.671 248.112 128.697 247.595 126.529C247.078 124.361 248.593 123.744 249.727 125.041Z" fill="#B16668"/>
<path d="M311.54 107.56C310.213 107.562 308.899 107.301 307.673 106.794C306.447 106.288 305.333 105.544 304.395 104.606C303.456 103.669 302.712 102.555 302.204 101.33C301.696 100.104 301.434 98.7905 301.434 97.4639V83.2852C304.111 83.2876 306.678 84.3521 308.571 86.245C310.464 88.138 311.528 90.7047 311.531 93.3817L311.54 107.56Z" fill="#263238"/>
</svg>
