<svg width="112" height="80" viewBox="0 0 112 80" fill="none" xmlns="http://www.w3.org/2000/svg">
<g clip-path="url(#clip0_1553_3496)">
<path d="M19.9091 34.9521C-8.85053 37.339 -7.17833 86.491 29.6765 78.2697C46.5865 72.5897 44.7155 54.2242 44.4161 34.9521H19.9091ZM35.579 57.0863C36.022 66.545 24.6378 74.0262 15.6677 68.9319C2.99883 62.0921 9.4108 44.6212 20.5071 43.682C20.7175 43.7483 35.1582 43.682 35.1582 43.682C35.1582 43.682 35.6455 54.9977 35.579 57.0863Z" fill="#ED1C24"/>
<path d="M88.9342 17.6966C84.1172 -8.12816 44.8146 -4.52573 45.1026 21.8737C45.0918 40.6925 45.1139 59.5226 45.0918 78.3412C44.4494 79.9325 51.7362 78.7393 52.954 79.126C53.7183 79.1476 53.8844 78.9378 53.8736 78.1977C53.851 66.9924 53.8623 55.7871 53.8402 44.5822C53.8402 43.875 54.0506 43.7314 54.715 43.7314C58.7349 43.7645 62.744 43.7424 66.7638 43.7424C80.518 44.2286 91.5701 31.1449 88.9342 17.6966ZM67.3841 35.0347C63.0983 35.0678 58.8013 35.0347 54.5155 35.0568C53.1536 35.4657 54.1611 28.5702 53.8736 27.3878H53.9287C50.6288 7.93912 73.5188 0.966326 80.0639 18.2713C82.3562 26.6033 76.044 34.9684 67.3841 35.0347Z" fill="white"/>
</g>
<defs>
<clipPath id="clip0_1553_3496">
<rect width="111.605" height="79.1966" fill="white"/>
</clipPath>
</defs>
</svg>
