<svg width="357" height="65" viewBox="0 0 357 65" fill="none" xmlns="http://www.w3.org/2000/svg">
<rect width="357" height="65" rx="4" fill="url(#paint0_radial_1565_4690)"/>
<g clip-path="url(#clip0_1565_4690)">
<path d="M141.369 26.8942C139.32 15.8879 122.576 17.4349 122.698 28.6732C122.698 34.2982 122.698 39.9669 122.698 45.6027H126.43C126.662 44.3982 125.909 38.1216 126.795 37.9889C134.547 38.9059 142.565 36.0993 141.369 26.8942ZM132.189 34.2761C126.275 33.8893 126.253 35.9116 126.43 31.0159H126.452C124.846 23.2698 134.713 19.4793 137.582 27.1374C138.567 30.6846 135.876 34.254 132.189 34.2761Z" fill="white"/>
<path d="M141.369 26.8942C139.32 15.8879 122.576 17.4349 122.698 28.6732C122.698 34.2982 122.698 39.9669 122.698 45.6027H126.43C126.662 44.3982 125.909 38.1216 126.795 37.9889C134.547 38.9059 142.565 36.0993 141.369 26.8942ZM132.189 34.2761C126.275 33.8893 126.253 35.9116 126.43 31.0159H126.452C124.846 23.2698 134.713 19.4793 137.582 27.1374C138.567 30.6846 135.876 34.254 132.189 34.2761Z" fill="white"/>
<path d="M157.79 22.9297C157.359 27.4824 159.939 38.4223 152.486 38.0134C144.778 38.4002 147.436 27.703 146.993 22.9297H142.973C142.851 31.1401 141.6 42.0024 152.475 42.0687C163.272 42.1351 161.877 30.8413 161.799 22.9297H157.79Z" fill="white"/>
<path d="M157.79 22.9297C157.359 27.4824 159.939 38.4223 152.486 38.0134C144.778 38.4002 147.436 27.703 146.993 22.9297H142.973C142.851 31.1401 141.6 42.0024 152.475 42.0687C163.272 42.1351 161.877 30.8413 161.799 22.9297H157.79Z" fill="white"/>
<path d="M167.045 19.2559H163.279V45.7434H167.045V19.2559Z" fill="white"/>
<path d="M167.045 19.2559H163.279V45.7434H167.045V19.2559Z" fill="white"/>
<path d="M172.192 19.2559H168.426V45.7434H172.192V19.2559Z" fill="white"/>
<path d="M172.192 19.2559H168.426V45.7434H172.192V19.2559Z" fill="white"/>
<path d="M182.885 23.0732C170.493 23.2615 170.46 41.6934 182.841 41.9253C195.211 41.7376 195.266 23.3165 182.885 23.0732ZM182.852 38.1791C175.399 38.2233 175.366 26.8308 182.841 26.8087C190.316 26.8195 190.294 38.2125 182.852 38.1791Z" fill="#ED1C24"/>
<path d="M193.526 22.9854H197.779L203.205 33.6933L208.831 22.9854H213.228L203.382 42.0144L193.526 22.9854Z" fill="white"/>
<path d="M193.526 22.9854H197.779L203.205 33.6933L208.831 22.9854H213.228L203.382 42.0144L193.526 22.9854Z" fill="white"/>
<path d="M233.361 31.4835C232.342 19.3504 211.523 20.0576 215 35.6052C217.403 42.7439 225.188 41.9482 233.361 41.8268V31.4835ZM223.981 38.0919C220.028 38.3347 216.772 33.4065 218.965 29.6937C221.866 24.3449 229.264 27.0522 229.662 31.7376C229.629 31.8261 229.662 37.9258 229.662 37.9258C229.662 37.9258 224.867 38.1248 223.981 38.0919Z" fill="white"/>
<path d="M233.361 31.4835C232.342 19.3504 211.523 20.0576 215 35.6052C217.403 42.7439 225.188 41.9482 233.361 41.8268V31.4835ZM223.981 38.0919C220.028 38.3347 216.772 33.4065 218.965 29.6937C221.866 24.3449 229.264 27.0522 229.662 31.7376C229.629 31.8261 229.662 37.9258 229.662 37.9258C229.662 37.9258 224.867 38.1248 223.981 38.0919Z" fill="white"/>
</g>
<defs>
<radialGradient id="paint0_radial_1565_4690" cx="0" cy="0" r="1" gradientUnits="userSpaceOnUse" gradientTransform="translate(185.111 27.0181) rotate(-0.51984) scale(153.931 28.0262)">
<stop stop-color="#0000FF"/>
<stop offset="1" stop-color="#171C25"/>
</radialGradient>
<clipPath id="clip0_1565_4690">
<rect width="111.605" height="34.1127" fill="white" transform="translate(122.697 15.4434)"/>
</clipPath>
</defs>
</svg>
